<svg aria-hidden="true" style="position:absolute;width:0;height:0;overflow:hidden" xmlns="http://www.w3.org/2000/svg">
  <defs>
  <symbol id="icon-logo" viewBox="0 0 97 32">
<path d="M3.693 30.787c-0.423 0-0.808-0.033-1.156-0.103-0.347-0.064-0.605-0.133-0.776-0.209l0.681-2.32c0.519 0.14 0.979 0.2 1.383 0.18 0.404-0.019 0.76-0.169 1.071-0.453 0.316-0.285 0.593-0.749 0.833-1.393l0.351-0.965-5.323-14.735h3.031l3.684 11.288h0.151l3.684-11.289h3.040l-5.995 16.488c-0.261 0.737-0.621 1.374-1.070 1.936l0.010-0.013c-0.406 0.508-0.919 0.913-1.508 1.183l-0.026 0.011c-0.595 0.264-1.283 0.397-2.067 0.397zM20.024 25.655c-0.921 0-1.755-0.169-2.5-0.511-0.732-0.337-1.332-0.852-1.761-1.492l-0.010-0.015c-0.429-0.656-0.644-1.46-0.644-2.413 0-0.821 0.157-1.496 0.473-2.027s0.741-0.951 1.279-1.26c0.519-0.3 1.119-0.541 1.755-0.691l0.045-0.009c0.551-0.139 1.24-0.266 1.94-0.351l0.086-0.009 2.12-0.247c0.543-0.069 0.937-0.18 1.184-0.332 0.245-0.151 0.369-0.397 0.369-0.737v-0.067c0-0.827-0.233-1.468-0.701-1.923-0.461-0.453-1.149-0.681-2.064-0.681-0.953 0-1.704 0.211-2.253 0.635-0.544 0.416-0.92 0.88-1.128 1.391l-2.66-0.605c0.315-0.884 0.776-1.597 1.383-2.14 0.612-0.549 1.316-0.947 2.111-1.193 0.738-0.24 1.588-0.379 2.47-0.379 0.014 0 0.028 0 0.043 0h-0.002c0.58 0 1.196 0.069 1.845 0.208 0.657 0.133 1.269 0.379 1.837 0.739 0.575 0.36 1.045 0.875 1.411 1.544 0.367 0.663 0.549 1.524 0.549 2.585v9.659h-2.764v-1.988h-0.115c-0.221 0.418-0.496 0.774-0.822 1.078l-0.002 0.002c-0.396 0.369-0.865 0.667-1.381 0.87l-0.030 0.010c-0.573 0.233-1.263 0.349-2.064 0.349zM20.639 23.383c0.784 0 1.453-0.155 2.008-0.464 0.563-0.309 0.988-0.713 1.279-1.213 0.297-0.504 0.445-1.044 0.445-1.619v-1.873c-0.101 0.101-0.297 0.196-0.587 0.284-0.257 0.077-0.586 0.153-0.922 0.211l-0.054 0.008-1.071 0.16-0.871 0.113c-0.549 0.071-1.051 0.187-1.507 0.351-0.447 0.164-0.807 0.4-1.079 0.711-0.265 0.303-0.397 0.707-0.397 1.212 0 0.701 0.259 1.231 0.776 1.591 0.517 0.353 1.177 0.531 1.98 0.531zM36.3 25.627c-1.408 0-2.62-0.319-3.636-0.956-1.010-0.652-1.806-1.555-2.313-2.623l-0.016-0.038c-0.544-1.129-0.815-2.424-0.815-3.883 0-1.477 0.277-2.781 0.833-3.911 0.555-1.136 1.339-2.024 2.348-2.661 1.011-0.637 2.2-0.956 3.571-0.956 1.104 0 2.089 0.205 2.955 0.616 0.864 0.404 1.561 0.972 2.093 1.704 0.536 0.733 0.853 1.587 0.956 2.567h-2.756c-0.161-0.706-0.53-1.309-1.038-1.758l-0.004-0.003c-0.537-0.493-1.257-0.739-2.16-0.739-0.789 0-1.48 0.208-2.073 0.624-0.587 0.411-1.045 0.997-1.373 1.761-0.328 0.759-0.493 1.653-0.493 2.691 0 1.060 0.163 1.976 0.484 2.747 0.321 0.769 0.776 1.365 1.364 1.788 0.593 0.424 1.291 0.635 2.093 0.635 0.015 0 0.032 0 0.050 0 0.509 0 0.993-0.108 1.43-0.303l-0.022 0.009c0.443-0.201 0.812-0.489 1.108-0.861 0.301-0.376 0.523-0.829 0.631-1.324l0.004-0.021h2.756c-0.095 0.951-0.425 1.81-0.932 2.538l0.012-0.018c-0.511 0.737-1.196 1.32-2.053 1.741-0.853 0.424-1.853 0.635-3.003 0.635zM47.335 16.697v8.636h-2.831v-19.393h2.793v7.215h0.18c0.335-0.776 0.873-1.411 1.547-1.856l0.016-0.010c0.7-0.46 1.616-0.691 2.747-0.691 0.996 0 1.867 0.205 2.613 0.616 0.751 0.409 1.331 1.023 1.741 1.836 0.417 0.808 0.625 1.819 0.625 3.031v9.252h-2.832v-8.911c0-1.067-0.275-1.893-0.823-2.481-0.549-0.593-1.313-0.891-2.293-0.891-0.668 0-1.267 0.143-1.799 0.427-0.529 0.292-0.952 0.719-1.232 1.234l-0.008 0.016c-0.297 0.543-0.445 1.2-0.445 1.969zM66.535 10.788v2.272h-7.945v-2.272h7.947zM60.721 7.303h2.831v13.76c0 0.549 0.081 0.963 0.247 1.24 0.143 0.252 0.362 0.447 0.625 0.557l0.008 0.003c0.267 0.093 0.553 0.141 0.863 0.141 0.227 0 0.427-0.016 0.596-0.048l0.399-0.075 0.511 2.339c-0.194 0.072-0.429 0.137-0.671 0.184l-0.030 0.005c-0.303 0.069-0.68 0.107-1.136 0.113-0.745 0.013-1.44-0.12-2.083-0.397-0.646-0.279-1.176-0.721-1.555-1.276l-0.008-0.012c-0.397-0.581-0.597-1.311-0.597-2.187v-14.348zM68.868 10.788h2.831v15.493c0 0.971-0.177 1.792-0.531 2.461-0.347 0.669-0.865 1.177-1.553 1.524-0.681 0.347-1.524 0.52-2.528 0.52h-0.284c-0.095 0-0.192-0.003-0.293-0.008v-2.433h0.455c0.669 0 1.152-0.18 1.448-0.54 0.304-0.353 0.455-0.868 0.455-1.544v-15.473zM70.268 8.544c-0.009 0-0.019 0-0.030 0-0.48 0-0.916-0.188-1.239-0.494l0.001 0.001c-0.321-0.294-0.521-0.714-0.521-1.182 0-0.004 0-0.008 0-0.012v0.001c0-0.467 0.173-0.864 0.52-1.192 0.355-0.335 0.777-0.503 1.269-0.503 0.493 0 0.912 0.168 1.26 0.503 0.353 0.328 0.531 0.725 0.531 1.192 0 0.461-0.177 0.859-0.531 1.193-0.347 0.329-0.767 0.493-1.26 0.493zM80.976 25.627c-1.432 0-2.667-0.307-3.703-0.919-1.029-0.626-1.845-1.512-2.37-2.568l-0.016-0.036c-0.555-1.124-0.832-2.44-0.832-3.948 0-1.491 0.277-2.804 0.833-3.94 0.561-1.136 1.344-2.024 2.348-2.661 1.011-0.637 2.191-0.956 3.541-0.956 0.821 0 1.616 0.136 2.387 0.407 0.807 0.291 1.499 0.727 2.075 1.282l-0.002-0.002c0.613 0.58 1.096 1.333 1.449 2.263 0.353 0.92 0.531 2.041 0.531 3.36v1.005h-11.564v-2.121h8.787c0-0.745-0.151-1.405-0.453-1.98-0.298-0.573-0.733-1.039-1.264-1.365l-0.015-0.009c-0.543-0.333-1.18-0.501-1.913-0.501-0.795 0-1.489 0.196-2.083 0.587-0.587 0.387-1.041 0.891-1.364 1.516-0.298 0.576-0.474 1.257-0.474 1.979 0 0.013 0 0.027 0 0.040v-0.002 1.657c0 0.972 0.171 1.799 0.512 2.48 0.347 0.683 0.829 1.203 1.448 1.563 0.619 0.353 1.341 0.531 2.169 0.531 0.536 0 1.027-0.076 1.467-0.227 0.443-0.159 0.824-0.392 1.147-0.701 0.321-0.309 0.568-0.692 0.739-1.147l2.68 0.484c-0.221 0.81-0.622 1.507-1.158 2.076l0.002-0.002c-0.567 0.593-1.259 1.061-2.035 1.36l-0.038 0.013c-0.827 0.321-1.771 0.483-2.832 0.483zM96.349 10.787v2.273h-7.947v-2.272h7.947zM90.533 7.304h2.832v13.76c0 0.549 0.083 0.963 0.247 1.24 0.144 0.252 0.363 0.447 0.626 0.557l0.008 0.003c0.264 0.093 0.552 0.141 0.861 0.141 0.227 0 0.427-0.016 0.596-0.048l0.399-0.075 0.511 2.339c-0.194 0.072-0.429 0.137-0.67 0.184l-0.030 0.005c-0.304 0.069-0.683 0.107-1.137 0.113-0.038 0.001-0.083 0.002-0.128 0.002-0.706 0-1.378-0.147-1.987-0.411l0.032 0.012c-0.646-0.279-1.176-0.721-1.555-1.276l-0.008-0.012c-0.397-0.581-0.597-1.311-0.597-2.187v-14.349z"></path>
</symbol>
    <symbol id="icon-instagram" viewBox="0 0 32 32">
      <path d="M21.179 4H9.487a6.829 6.829 0 0 0-6.821 6.821v11.692a6.829 6.829 0 0 0 6.821 6.821h11.692A6.829 6.829 0 0 0 28 22.513V10.821A6.829 6.829 0 0 0 21.179 4zm-5.846 18.513a5.849 5.849 0 0 1-5.401-3.609c-.442-1.068-.558-2.244-.333-3.378s.782-2.176 1.6-2.993a5.847 5.847 0 0 1 9.98 4.134 5.854 5.854 0 0 1-5.846 5.846zm7.308-11.693a1.465 1.465 0 0 1-1.35-.902c-.111-.267-.14-.561-.083-.844a1.468 1.468 0 0 1 1.148-1.148 1.469 1.469 0 0 1 1.5.621 1.457 1.457 0 0 1-.182 1.845 1.462 1.462 0 0 1-1.033.428zm-3.41 5.847a3.898 3.898 0 1 1-7.797-.002 3.898 3.898 0 0 1 7.797.002z"/>
    </symbol>
    <symbol id="icon-menu" viewBox="0 0 32 32">
<path d="M3.706 10.618c-0.641 0.14-1.115 0.703-1.115 1.377 0 0.1 0.010 0.198 0.030 0.293l-0.002-0.009c0.126 0.583 0.519 0.976 1.103 1.101 0.402 0.087 24.151 0.087 24.553 0 0.584-0.125 0.977-0.518 1.103-1.101 0.163-0.762-0.321-1.49-1.103-1.658-0.347-0.074-24.235-0.077-24.57-0.002zM3.706 18.618c-0.641 0.14-1.115 0.703-1.115 1.377 0 0.1 0.010 0.198 0.030 0.293l-0.002-0.009c0.126 0.583 0.519 0.976 1.103 1.101 0.402 0.087 24.151 0.087 24.553 0 0.584-0.125 0.977-0.518 1.103-1.101 0.163-0.762-0.321-1.49-1.103-1.658-0.347-0.074-24.235-0.077-24.57-0.002z"></path>
</symbol>
    <symbol id="icon-youtube" viewBox="0 0 32 32">
      <path d="m18.226 15.768-3.119-1.455c-.272-.126-.496.015-.496.317v2.742c0 .301.224.443.496.317l3.118-1.455c.274-.128.274-.336.001-.464zM16 2.667C8.636 2.667 2.667 8.636 2.667 16S8.636 29.333 16 29.333 29.333 23.364 29.333 16 23.364 2.667 16 2.667zm0 18.75c-6.825 0-6.944-.615-6.944-5.417s.119-5.417 6.944-5.417 6.944.615 6.944 5.417-.119 5.417-6.944 5.417z"/>
    </symbol>
    <symbol id="icon-facebook" viewBox="0 0 32 32">
      <path d="M29.333 16.033C29.333 8.655 23.36 2.666 16 2.666S2.667 8.654 2.667 16.033c0 6.469 4.587 11.856 10.667 13.099v-9.089h-2.667v-4.01h2.667v-3.342a4.677 4.677 0 0 1 4.667-4.678h3.333v4.01h-2.667c-.733 0-1.333.601-1.333 1.337v2.673h4v4.01h-4v9.29c6.733-.668 12-6.363 12-13.3z"/>
    </symbol>
    <symbol id="icon-close" viewBox="0 0 32 32">
      <path d="m25.143 8.983-2.126-2.126-7.016 7.016-7.016-7.016-2.126 2.126L13.875 16l-7.016 7.016 2.126 2.126 7.017-7.016 7.016 7.016 2.126-2.126L18.128 16l7.016-7.017z"/>
    </symbol>
    <symbol id="icon-vector" viewBox="0 0 4352 32">
<path stroke-linejoin="miter" stroke-linecap="butt" stroke-miterlimit="4" stroke-width="16" d="M0 16h4352"></path>
</symbol>
  </defs>
</svg>
